<?xml version="1.0" encoding="utf-8"?>
<!-- Generator: Adobe Illustrator 22.0.0, SVG Export Plug-In . SVG Version: 6.00 Build 0)  -->
<svg version="1.1" id="Layer_1" xmlns="http://www.w3.org/2000/svg" xmlns:xlink="http://www.w3.org/1999/xlink" x="0px" y="0px"
	 viewBox="0 0 80.1 11" style="enable-background:new 0 0 80.1 11;" xml:space="preserve">
<style type="text/css">
	.st0{fill:#FFFFFF;}
	.st1{fill:#F15A29;}
</style>
<title>logo</title>
<path class="st0" d="M20.3,8.2h-0.5l0.1-1.5c-0.1,0.2-0.2,0.4-0.3,0.5c-0.1,0.1-0.2,0.3-0.3,0.4c-0.1,0.1-0.3,0.2-0.5,0.3
	c-0.2,0.1-0.4,0.2-0.6,0.2c-0.2,0.1-0.5,0.1-0.7,0.1c-0.4,0-0.7-0.1-1.1-0.2c-0.3-0.1-0.6-0.3-0.8-0.6c-0.2-0.2-0.4-0.5-0.5-0.9
	C15.1,6.3,15,6,15,5.6c0-0.5,0.1-1,0.3-1.4c0.2-0.4,0.4-0.8,0.8-1.2c0.3-0.3,0.7-0.5,1.2-0.7c0.5-0.1,0.9-0.2,1.4-0.2
	c0.4,0,0.9,0,1.3,0.1c0-0.4,0-0.7,0-1.1s0-0.6,0-1h0.5c0,0.7-0.1,1.5-0.1,2.3l0,2.8c0,1.1,0,1.8,0,2.1L20.3,8.2z M20,2.6
	c-0.2-0.1-0.5-0.1-0.7-0.2c-0.2,0-0.4,0-0.6,0c-0.4,0-0.8,0.1-1.3,0.2c-0.4,0.1-0.7,0.3-1,0.6c-0.3,0.3-0.5,0.7-0.7,1.1
	c-0.2,0.4-0.2,0.8-0.2,1.3c0,0.4,0.1,0.9,0.3,1.3c0.2,0.4,0.4,0.6,0.8,0.8C16.8,7.9,17.2,8,17.6,8c0.2,0,0.4,0,0.7-0.1
	c0.2-0.1,0.4-0.1,0.5-0.2c0.2-0.1,0.3-0.3,0.5-0.4c0.1-0.2,0.3-0.4,0.4-0.6c0.1-0.2,0.2-0.5,0.2-0.8c0.1-0.4,0.1-0.8,0.1-1.3L20,2.6
	z"/>
<path class="st0" d="M22.3,2.9c0-0.2,0-0.3,0-0.5c0.3-0.1,0.7-0.2,1-0.2c0.3,0,0.6-0.1,0.9-0.1c0.3,0,0.7,0,1,0.1
	c0.3,0,0.5,0.2,0.7,0.3c0.2,0.1,0.3,0.3,0.4,0.5c0.1,0.2,0.1,0.4,0.1,0.6c0,0.2,0,0.4,0,0.7s0,0.6,0,1s0,0.8-0.1,1.3s0,0.9,0,1.1
	v0.5h-0.5c0-0.6,0.1-1.1,0.1-1.5s0-0.8,0.1-1.2s0-0.8,0-1.2l-0.3,0.2c-0.1,0.1-0.1,0.1-0.2,0.1l-0.3,0.1L25,4.9l-0.6,0.2l-0.7,0.2
	c-0.3,0.1-0.5,0.2-0.8,0.3c-0.2,0.1-0.4,0.2-0.5,0.4c-0.1,0.1-0.2,0.2-0.3,0.4C22,6.4,22,6.6,22,6.8C22,7,22,7.2,22.2,7.4
	c0.1,0.2,0.3,0.3,0.6,0.4c0.3,0.1,0.6,0.1,0.8,0.1c0.2,0,0.3,0,0.5,0c0.1,0,0.3,0,0.4-0.1c0.1,0,0.3-0.1,0.6-0.2L25,8.2
	c-0.3,0.1-0.6,0.1-0.8,0.1h-0.6c-0.3,0-0.6,0-0.9-0.1c-0.3,0-0.5-0.1-0.7-0.3c-0.2-0.1-0.3-0.3-0.4-0.5c-0.1-0.2-0.1-0.4-0.1-0.6
	c0-0.2,0-0.3,0.1-0.5c0.1-0.2,0.1-0.3,0.3-0.4c0.1-0.1,0.2-0.2,0.4-0.3c0.2-0.1,0.4-0.2,0.6-0.3c0.3-0.1,0.5-0.2,0.8-0.3l1-0.3
	c0.2-0.1,0.5-0.1,0.7-0.3c0.2-0.1,0.4-0.2,0.5-0.4c0.1-0.2,0.2-0.4,0.2-0.5c0-0.1,0-0.3-0.1-0.4c-0.1-0.1-0.2-0.3-0.3-0.4
	c-0.2-0.1-0.4-0.2-0.6-0.2c-0.2,0-0.5-0.1-0.7-0.1c-0.3,0-0.5,0-0.8,0c-0.2,0-0.4,0.1-0.6,0.1C22.8,2.7,22.5,2.8,22.3,2.9z"/>
<path class="st0" d="M28,8.2c0-0.6,0.1-1.6,0.2-3.1s0.1-2.4,0.1-2.9h0.5c0,0.8-0.1,1.8-0.2,3s-0.1,2.2-0.1,2.9L28,8.2L28,8.2z
	 M28.2,0.7V0.2h0.6v0.6H28.2L28.2,0.7z"/>
<path class="st0" d="M30.2,8.2c0.2-3.3,0.3-5.9,0.3-8H31L30.8,3l-0.2,5.1H30.2z"/>
<path class="st0" d="M31.2,10.9c0-0.2,0-0.3,0-0.5l0.3,0.1c0.1,0,0.2,0,0.3,0.1h0.3c0.2,0,0.4-0.1,0.6-0.2c0.2-0.2,0.5-0.4,0.6-0.7
	c0.3-0.5,0.5-0.9,0.7-1.4l-1.3-3.6l-0.9-2.5h0.5l0.1,0.4l0.2,0.5c0.1,0.2,0.2,0.5,0.3,0.9l1.3,3.8l1.8-4.1c0.2-0.4,0.3-0.6,0.3-0.8
	s0.2-0.4,0.2-0.7h0.5c-0.2,0.4-0.5,1.2-1.1,2.3L35,7l-1.1,2.4c-0.1,0.3-0.3,0.6-0.4,0.8c-0.1,0.1-0.2,0.2-0.3,0.4
	c-0.1,0.1-0.2,0.1-0.3,0.2c-0.1,0.1-0.3,0.1-0.4,0.1C32.3,11,32.2,11,32,11C31.7,11,31.5,10.9,31.2,10.9z"/>
<path class="st1" d="M40.6,8.2c0.1-0.7,0.1-1.3,0.2-1.9s0.1-1.2,0.1-1.9s0-1.5,0.1-2.3s0-1.5,0-1.9c0.5,0,0.9,0,1.2,0h1.2h1.3
	c0.4,0,0.9,0,1.3,0.1c0.3,0,0.5,0.1,0.8,0.2c0.2,0.1,0.4,0.2,0.6,0.3c0.2,0.1,0.3,0.3,0.4,0.4C47.9,1.3,48,1.4,48,1.6
	c0.1,0.2,0.1,0.4,0.1,0.7c0,0.2,0,0.5-0.1,0.7c-0.1,0.2-0.2,0.5-0.3,0.6c-0.1,0.2-0.3,0.4-0.5,0.5c-0.3,0.2-0.6,0.3-0.9,0.5l0.3,0.7
	c0.1,0.2,0.2,0.4,0.3,0.6l0.8,1.7l0.2,0.4h-2.7C45.1,8,45,7.6,44.8,7.1c0-0.2-0.1-0.4-0.2-0.5c-0.1-0.3-0.2-0.7-0.4-1.2l-0.6-1.7
	c0.2,0,0.4,0.1,0.6,0.1c0.3,0,0.5,0,0.8-0.1c0.2-0.1,0.4-0.2,0.5-0.4c0.1-0.2,0.2-0.4,0.2-0.6c0-0.2,0-0.3-0.1-0.5
	c-0.1-0.1-0.3-0.2-0.4-0.3c-0.3-0.1-0.6-0.1-0.9-0.1h-0.4h-0.5c0,0.8-0.1,1.8-0.1,2.9s-0.1,2.3-0.1,3.4L40.6,8.2L40.6,8.2z"/>
<path class="st1" d="M54.8,6.4c0,0.2-0.2,0.8-0.3,1.7c-0.5,0.1-0.8,0.1-1.2,0.2s-0.6,0-0.9,0c-0.4,0-0.9,0-1.3-0.1
	c-0.4-0.1-0.7-0.2-1-0.3c-0.3-0.2-0.5-0.4-0.7-0.6C49.2,7,49,6.7,48.9,6.4c-0.1-0.3-0.1-0.7-0.2-1c0-0.5,0.1-1,0.3-1.5
	c0.2-0.4,0.4-0.8,0.8-1.1c0.3-0.3,0.7-0.5,1.1-0.6C51.4,2.1,51.8,2,52.2,2c0.4,0,0.9,0,1.3,0.1c0.4,0.1,0.7,0.3,1,0.5
	C54.7,3,55,3.3,55.1,3.6c0.1,0.3,0.2,0.7,0.3,1c0,0.2,0,0.5-0.1,0.7h-4.2c0,0.1,0,0.1,0,0.2c0,0.4,0.1,0.7,0.4,0.9
	c0.3,0.2,0.7,0.3,1.1,0.3c0.3,0,0.6,0,0.9-0.1C54,6.6,54.4,6.5,54.8,6.4z M51.1,4.5h1.9V4.4c0-0.2,0-0.4-0.1-0.5
	c-0.1-0.1-0.2-0.3-0.3-0.3c-0.1-0.1-0.3-0.1-0.4-0.1c-0.1,0-0.2,0-0.3,0.1c-0.1,0-0.2,0.1-0.3,0.2c-0.1,0.1-0.2,0.2-0.2,0.3
	c-0.1,0.1-0.1,0.2-0.1,0.3C51.2,4.3,51.2,4.4,51.1,4.5L51.1,4.5z"/>
<path class="st1" d="M61,6.3c0,0.2-0.1,0.5-0.1,0.9l-0.2,0.9c-0.6,0.1-1.2,0.2-1.8,0.2c-0.4,0-0.8,0-1.1-0.1c-0.4-0.1-0.7-0.3-1-0.5
	c-0.3-0.3-0.5-0.6-0.7-1c-0.2-0.5-0.3-0.9-0.3-1.4c0-0.5,0.1-1,0.3-1.4c0.1-0.4,0.4-0.8,0.7-1.1c0.3-0.3,0.7-0.5,1.1-0.6
	C58.4,2.1,58.8,2,59.2,2c0.3,0,0.6,0,0.8,0c0.3,0,0.7,0.1,1,0.2v0.2v0.4c0,0.1,0,0.4,0,0.7V4c-0.5-0.2-1-0.3-1.5-0.3
	c-0.3,0-0.6,0.1-0.8,0.2c-0.2,0.1-0.4,0.3-0.5,0.5c-0.1,0.2-0.2,0.5-0.2,0.8c0,0.3,0,0.5,0.2,0.8c0.1,0.2,0.3,0.4,0.5,0.5
	c0.2,0.1,0.5,0.2,0.7,0.1c0.2,0,0.3,0,0.5,0l0.5-0.1C60.6,6.4,60.8,6.4,61,6.3z"/>
<path class="st1" d="M62.1,8.2c0.1-0.5,0.1-0.9,0.1-1.2s0.1-0.7,0.1-1.2s0-1,0.1-1.6s0-1.3,0-2h2.4c-0.1,0.7-0.1,1.4-0.1,1.9
	s0,1.2-0.1,1.8c0,1.1,0,1.9,0,2.3L62.1,8.2L62.1,8.2z M62.5,1.4c0-0.5,0-0.8,0-1.1c0-0.1,0-0.2,0-0.3h2.4c0,0.1,0,0.2,0,0.3V1
	c0,0.1,0,0.2,0,0.4C64.8,1.4,62.5,1.4,62.5,1.4z"/>
<path class="st1" d="M65.7,10.9c0.1-0.8,0.1-1.6,0.2-2.4C66,7.1,66,6,66.1,5.1s0-1.8,0-2.8c0.8-0.1,1.4-0.2,1.9-0.2
	C68.4,2,68.9,2,69.3,2c0.5,0,1,0.1,1.6,0.2c0.4,0.1,0.8,0.3,1.1,0.6c0.3,0.3,0.5,0.7,0.7,1.1c0.1,0.4,0.2,0.9,0.2,1.3
	c0,0.4-0.1,0.8-0.2,1.2c-0.1,0.4-0.3,0.7-0.5,1c-0.4,0.6-1.1,0.9-1.9,0.9c-0.2,0-0.4,0-0.6,0c-0.2,0-0.4-0.1-0.6-0.2
	C69,8,68.8,7.9,68.7,7.8c-0.2-0.1-0.3-0.2-0.5-0.3l-0.1,1.6c0,0.8,0,1.3,0,1.7L65.7,10.9L65.7,10.9z M68.4,3.8c0,0.2,0,0.3-0.1,0.4
	c-0.1,0.1,0,0.3,0,0.5s0,0.3,0,0.5c0,0.3,0,0.6,0.1,0.8c0.1,0.2,0.2,0.4,0.4,0.5c0.2,0.1,0.4,0.2,0.6,0.2c0.2,0,0.4-0.1,0.6-0.2
	c0.2-0.1,0.3-0.3,0.4-0.6c0.1-0.3,0.2-0.5,0.2-0.8c0-0.4-0.1-0.7-0.3-1c-0.3-0.3-0.6-0.4-1-0.4C69,3.7,68.7,3.7,68.4,3.8z"/>
<path class="st1" d="M79.6,6.4c0,0.2-0.1,0.8-0.3,1.7c-0.4,0.1-0.8,0.1-1.1,0.2c-0.3,0-0.6,0-0.9,0c-0.4,0-0.9,0-1.3-0.1
	c-0.4-0.1-0.7-0.2-1-0.3c-0.6-0.3-1-0.8-1.2-1.5c-0.1-0.3-0.1-0.7-0.2-1c0-0.5,0.1-1,0.3-1.5c0.2-0.4,0.4-0.8,0.8-1.1
	c0.3-0.3,0.7-0.5,1.1-0.6C76.2,2.1,76.6,2,77,2c0.4,0,0.9,0,1.3,0.1c0.4,0.1,0.7,0.3,1,0.5c0.3,0.2,0.5,0.5,0.6,0.9
	c0.1,0.3,0.2,0.7,0.2,1c0,0.2,0,0.5-0.1,0.7h-4.1v0.2c0,0.4,0.1,0.7,0.4,0.9c0.3,0.2,0.7,0.3,1.1,0.3c0.3,0,0.6,0,0.9-0.1
	C78.7,6.6,79.2,6.5,79.6,6.4z M75.9,4.5h1.9c0-0.1,0-0.1,0-0.2c0-0.2,0-0.4-0.1-0.5c-0.1-0.1-0.2-0.3-0.3-0.3
	c-0.1-0.1-0.3-0.1-0.4-0.1c-0.1,0-0.2,0-0.3,0.1c-0.1,0-0.2,0.1-0.3,0.2c-0.1,0.1-0.2,0.2-0.2,0.3C76.1,3.9,76.1,4,76,4.1
	C76,4.2,76,4.4,75.9,4.5L75.9,4.5z"/>
<image style="overflow:visible;" width="591" height="590" xlink:href="1F94ADCC.jpg"  transform="matrix(1.845763e-02 0 0 1.845763e-02 0.6595 4.999858e-02)">
</image>
</svg>
