<svg id="Layer_1" data-name="Layer 1" xmlns="http://www.w3.org/2000/svg" viewBox="0 0 65.09 10.99"><defs><style>.cls-1{fill:#fff;}.cls-2{fill:#f15a29;}</style></defs><title>logo</title><path class="cls-1" d="M38.92,25.79h-.47l.08-1.49a4,4,0,0,1-.26.54,2.55,2.55,0,0,1-.3.39,2,2,0,0,1-.45.34,2.87,2.87,0,0,1-.61.25,2.82,2.82,0,0,1-.71.09,2.72,2.72,0,0,1-1.07-.21,2.31,2.31,0,0,1-.83-.58,2.21,2.21,0,0,1-.49-.87,3.6,3.6,0,0,1-.15-1,3.9,3.9,0,0,1,.27-1.43,3.09,3.09,0,0,1,.8-1.16,3,3,0,0,1,1.19-.67,5.32,5.32,0,0,1,1.4-.19,7,7,0,0,1,1.32.13c0-.37,0-.73,0-1.07s0-.64,0-1h.49c0,.73-.08,1.5-.1,2.3L39,22.92c0,1.09,0,1.8,0,2.15Zm-.29-5.52a4.25,4.25,0,0,0-.73-.16,3.86,3.86,0,0,0-.58,0,4,4,0,0,0-1.25.19,2.52,2.52,0,0,0-1,.6,2.83,2.83,0,0,0-.69,1.07,3.61,3.61,0,0,0-.24,1.27,2.9,2.9,0,0,0,.26,1.26,1.79,1.79,0,0,0,.76.84,2.2,2.2,0,0,0,1.09.27,2.57,2.57,0,0,0,.65-.08,2.21,2.21,0,0,0,.54-.24,2.39,2.39,0,0,0,.45-.41,2.91,2.91,0,0,0,.37-.6,3,3,0,0,0,.24-.75,10,10,0,0,0,.1-1.26Z" transform="translate(-33.66 -17.63)"/><path class="cls-1" d="M41,20.48A4.3,4.3,0,0,0,41,20a7.94,7.94,0,0,1,1-.23,6.65,6.65,0,0,1,.89-.06,4.92,4.92,0,0,1,1,.09,1.73,1.73,0,0,1,.74.31,1,1,0,0,1,.37.49,1.77,1.77,0,0,1,.09.56c0,.19,0,.44,0,.74s0,.62-.05,1,0,.78-.07,1.29,0,.88,0,1.11v.49h-.49c0-.6.09-1.08.11-1.45s0-.77.06-1.2,0-.83.05-1.2l-.28.23a1.07,1.07,0,0,1-.21.13l-.27.12-.3.1L43,22.7l-.74.21a4.64,4.64,0,0,0-.78.31,1.93,1.93,0,0,0-.5.35,1.1,1.1,0,0,0-.26.36,1.23,1.23,0,0,0-.09.47,1,1,0,0,0,.23.66,1.21,1.21,0,0,0,.57.4,3,3,0,0,0,.84.11,3.64,3.64,0,0,0,.48,0,3,3,0,0,0,.43-.07c.13,0,.33-.08.58-.16l-.09.44c-.31.06-.57.1-.77.12l-.56,0a5,5,0,0,1-.9-.08,1.54,1.54,0,0,1-.7-.3,1.35,1.35,0,0,1-.42-.51,1.46,1.46,0,0,1-.13-.61,1.51,1.51,0,0,1,.08-.48,1.61,1.61,0,0,1,.25-.44,1.56,1.56,0,0,1,.38-.33,2.71,2.71,0,0,1,.61-.32c.25-.1.53-.19.83-.28l1-.25a4.67,4.67,0,0,0,.72-.25,1.24,1.24,0,0,0,.53-.41.92.92,0,0,0,.19-.55.85.85,0,0,0-.09-.38,1,1,0,0,0-.31-.35,1.5,1.5,0,0,0-.56-.23,4,4,0,0,0-.7-.06,6.77,6.77,0,0,0-.81.05,5.28,5.28,0,0,0-.63.13C41.43,20.3,41.21,20.38,41,20.48Z" transform="translate(-33.66 -17.63)"/><path class="cls-1" d="M46.65,25.78c.05-.58.1-1.61.16-3.06s.08-2.41.08-2.86h.47c0,.75-.11,1.76-.16,3s-.08,2.24-.08,2.88h-.47Zm.22-7.42,0-.58h.59v.58h-.6Z" transform="translate(-33.66 -17.63)"/><path class="cls-1" d="M48.85,25.78c.18-3.26.28-5.92.32-8h.48l-.15,2.86-.17,5.14h-.48Z" transform="translate(-33.66 -17.63)"/><path class="cls-1" d="M49.89,28.51a2.77,2.77,0,0,0,0-.46l.3.12a1.62,1.62,0,0,0,.29.06l.3,0a1.24,1.24,0,0,0,.63-.17A1.75,1.75,0,0,0,52,27.4a14.88,14.88,0,0,0,.7-1.43l-1.29-3.6-.93-2.51H51l.1.42.15.49c.07.22.17.52.31.9l1.33,3.8,1.85-4.12c.17-.38.29-.65.35-.82s.15-.39.24-.67h.54c-.2.44-.55,1.22-1.07,2.33l-1.14,2.47-1.1,2.41a5.58,5.58,0,0,1-.44.82,2.22,2.22,0,0,1-.32.35,1.34,1.34,0,0,1-.28.18,1.3,1.3,0,0,1-.39.14,1.84,1.84,0,0,1-.47.06A3,3,0,0,1,49.89,28.51Z" transform="translate(-33.66 -17.63)"/><path class="cls-2" d="M59.27,25.78c.07-.69.13-1.3.17-1.86s.08-1.19.12-1.91,0-1.49.07-2.3,0-1.45,0-1.93c.49,0,.88,0,1.18,0l1.15,0,1.31,0a13.11,13.11,0,0,1,1.33.06,2.77,2.77,0,0,1,.8.17,2.18,2.18,0,0,1,.61.31,2,2,0,0,1,.41.41,1.79,1.79,0,0,1,.25.54,2.28,2.28,0,0,1,.1.66,2.8,2.8,0,0,1-.1.73,2.31,2.31,0,0,1-.32.65,2.06,2.06,0,0,1-.54.52,4.26,4.26,0,0,1-.91.45l.31.74c.08.21.17.42.27.64l.79,1.71.18.44H63.79c-.06-.2-.17-.58-.34-1.13a4.2,4.2,0,0,0-.17-.53c-.09-.28-.23-.67-.41-1.17l-.61-1.66a3.34,3.34,0,0,0,.62.06,2.13,2.13,0,0,0,.78-.13,1,1,0,0,0,.53-.4,1,1,0,0,0,.18-.56.77.77,0,0,0-.14-.45.82.82,0,0,0-.42-.28,3.35,3.35,0,0,0-.9-.09h-.42l-.52,0c0,.8-.09,1.78-.13,2.93s-.06,2.28-.07,3.39h-2.5Z" transform="translate(-33.66 -17.63)"/><path class="cls-2" d="M73.42,24c0,.24-.15.8-.29,1.7-.46.09-.84.15-1.15.18s-.62,0-.94,0a8.47,8.47,0,0,1-1.28-.09,3.16,3.16,0,0,1-1-.34,2.5,2.5,0,0,1-.71-.62A2.55,2.55,0,0,1,67.6,24a3.57,3.57,0,0,1-.15-1,3.79,3.79,0,0,1,.3-1.47,3,3,0,0,1,.77-1.12,2.78,2.78,0,0,1,1.09-.57,4.45,4.45,0,0,1,1.26-.17,5.26,5.26,0,0,1,1.27.15,2.48,2.48,0,0,1,1,.54,2.23,2.23,0,0,1,.6.88A3,3,0,0,1,74,22.27a4.08,4.08,0,0,1-.07.74H69.77a1,1,0,0,0,0,.17,1,1,0,0,0,.45.92,2,2,0,0,0,1.1.3,5.06,5.06,0,0,0,.89-.09A10.93,10.93,0,0,0,73.42,24Zm-3.61-1.89h1.94V22a1.18,1.18,0,0,0-.1-.52.71.71,0,0,0-.32-.32,1.06,1.06,0,0,0-.45-.1,1,1,0,0,0-.34.06.75.75,0,0,0-.29.16.86.86,0,0,0-.22.25,1,1,0,0,0-.13.27A2.87,2.87,0,0,0,69.81,22.12Z" transform="translate(-33.66 -17.63)"/><path class="cls-2" d="M79.71,23.91c0,.16-.07.45-.14.86l-.15.94a7.57,7.57,0,0,1-1.8.22,4.63,4.63,0,0,1-1.12-.12,2.79,2.79,0,0,1-1-.54,2.33,2.33,0,0,1-.67-.95,3.8,3.8,0,0,1-.26-1.43,4.17,4.17,0,0,1,.25-1.4,2.69,2.69,0,0,1,.73-1.11,2.47,2.47,0,0,1,1.06-.58,5.27,5.27,0,0,1,1.3-.15,7.87,7.87,0,0,1,.84,0,8.12,8.12,0,0,1,1,.19V20l0,.43c0,.14,0,.37,0,.69l0,.52a4.7,4.7,0,0,0-1.48-.29,1.73,1.73,0,0,0-.81.18,1.12,1.12,0,0,0-.52.51,1.8,1.8,0,0,0-.17.79,1.67,1.67,0,0,0,.15.75.94.94,0,0,0,.48.46,1.72,1.72,0,0,0,.72.15,2.88,2.88,0,0,0,.47,0l.48-.09A4.28,4.28,0,0,0,79.71,23.91Z" transform="translate(-33.66 -17.63)"/><path class="cls-2" d="M80.75,25.78c.06-.47.1-.87.13-1.18s.05-.7.08-1.18,0-1,.06-1.59,0-1.26,0-2h2.41c-.06.74-.11,1.39-.14,1.94s0,1.16-.06,1.78c0,1.11,0,1.86,0,2.26H80.75Zm.37-6.73c0-.47,0-.83,0-1.1,0-.08,0-.19,0-.32H83.5c0,.12,0,.22,0,.31l0,.72c0,.11,0,.24,0,.39H81.12Z" transform="translate(-33.66 -17.63)"/><path class="cls-2" d="M84.36,28.52c.07-.8.13-1.6.18-2.39.09-1.37.16-2.51.19-3.43s0-1.84,0-2.75q1.18-.18,1.86-.24T88,19.65a6.81,6.81,0,0,1,1.55.17,2.33,2.33,0,0,1,1.14.62,2.81,2.81,0,0,1,.65,1.06,4,4,0,0,1,.22,1.29,4.06,4.06,0,0,1-.18,1.2,3.32,3.32,0,0,1-.54,1,2.26,2.26,0,0,1-1.88.9,3.17,3.17,0,0,1-.6-.05,3.53,3.53,0,0,1-.58-.16,2.48,2.48,0,0,1-.46-.22,5.33,5.33,0,0,1-.46-.31l-.06,1.63c0,.75,0,1.32,0,1.7H84.36Zm2.7-7.07c0,.17,0,.32-.07.43s0,.26,0,.45,0,.34,0,.45a2,2,0,0,0,.15.81,1.21,1.21,0,0,0,.42.5,1,1,0,0,0,.57.18,1,1,0,0,0,.59-.18,1.31,1.31,0,0,0,.43-.56,2.15,2.15,0,0,0,.16-.83,1.45,1.45,0,0,0-.34-1,1.21,1.21,0,0,0-1-.38A3.54,3.54,0,0,0,87.06,21.45Z" transform="translate(-33.66 -17.63)"/><path class="cls-2" d="M98.21,24c0,.24-.14.8-.29,1.7q-.67.13-1.14.18c-.31,0-.62,0-.94,0a8.47,8.47,0,0,1-1.28-.09,3.16,3.16,0,0,1-1-.34A2.51,2.51,0,0,1,92.4,24a3.57,3.57,0,0,1-.15-1,3.79,3.79,0,0,1,.3-1.47,2.86,2.86,0,0,1,.77-1.12,2.72,2.72,0,0,1,1.09-.57,4.45,4.45,0,0,1,1.26-.17,5.26,5.26,0,0,1,1.27.15,2.54,2.54,0,0,1,1,.54,2.23,2.23,0,0,1,.6.88,3,3,0,0,1,.18,1.05,4.16,4.16,0,0,1-.08.74H94.56v.17a1,1,0,0,0,.45.92,2,2,0,0,0,1.1.3,5,5,0,0,0,.88-.09A10.41,10.41,0,0,0,98.21,24Zm-3.6-1.89h1.93a1.09,1.09,0,0,0,0-.17,1.17,1.17,0,0,0-.11-.52.64.64,0,0,0-.31-.32,1.06,1.06,0,0,0-.45-.1,1,1,0,0,0-.34.06.87.87,0,0,0-.3.16,1,1,0,0,0-.22.25,1.32,1.32,0,0,0-.13.27C94.67,21.84,94.64,22,94.61,22.12Z" transform="translate(-33.66 -17.63)"/></svg>